<svg width="34" height="34" viewBox="0 0 34 34" fill="none" xmlns="http://www.w3.org/2000/svg">
<path d="M7.96875 17C7.96875 15.3155 8.43286 13.7375 9.23917 12.3863V6.65491H3.50778C1.23303 9.60919 0 13.2097 0 17C0 20.7903 1.23303 24.3908 3.50778 27.3451H9.23917V21.6137C8.43286 20.2625 7.96875 18.6845 7.96875 17Z" fill="#FBBD00"/>
<path d="M17 26.0312L13.0156 30.0156L17 34C20.7904 34 24.3908 32.767 27.3451 30.4922V24.7669H21.6198C20.2568 25.5762 18.6722 26.0312 17 26.0312Z" fill="#0F9D58"/>
<path d="M9.23916 21.6137L3.50777 27.3451C3.95814 27.93 4.44855 28.4901 4.9792 29.0209C8.19008 32.2317 12.4591 34 17 34V26.0313C13.7047 26.0313 10.8164 24.2569 9.23916 21.6137Z" fill="#31AA52"/>
<path d="M34 17C34 15.9657 33.9064 14.9295 33.7216 13.9203L33.5721 13.1035H17V21.0723H25.0652C24.282 22.6302 23.0778 23.9013 21.6197 24.767L27.345 30.4923C27.9299 30.0419 28.4901 29.5515 29.0208 29.0208C32.2317 25.8099 34 21.5409 34 17Z" fill="#3C79E6"/>
<path d="M23.3861 10.6139L24.0904 11.3182L29.7252 5.68351L29.0209 4.97921C25.81 1.76833 21.5409 0 17 0L13.0156 3.98438L17 7.96875C19.4123 7.96875 21.6802 8.90813 23.3861 10.6139Z" fill="#CF2D48"/>
<path d="M17 7.96875V0C12.4591 0 8.19008 1.76833 4.97914 4.97914C4.44849 5.50979 3.95808 6.06993 3.50771 6.6549L9.2391 12.3863C10.8165 9.74312 13.7047 7.96875 17 7.96875Z" fill="#EB4132"/>
</svg>
