<svg width="206" height="206" viewBox="0 0 206 206" fill="none" xmlns="http://www.w3.org/2000/svg">
<path d="M104.167 19.3125C57.1006 18.6768 18.6768 57.1006 19.3125 104.167C19.9402 149.306 56.6943 186.06 101.833 186.687C148.907 187.331 187.323 148.907 186.679 101.841C186.06 56.6942 149.306 19.9402 104.167 19.3125ZM155.031 150.979C154.871 151.153 154.674 151.289 154.456 151.378C154.237 151.467 154.001 151.506 153.766 151.494C153.53 151.482 153.3 151.418 153.092 151.307C152.883 151.195 152.702 151.04 152.561 150.851C148.962 146.142 144.555 142.111 139.545 138.945C129.301 132.371 116.322 128.75 103 128.75C89.6784 128.75 76.6988 132.371 66.4551 138.945C61.4454 142.11 57.0382 146.14 53.4393 150.847C53.2979 151.036 53.1167 151.191 52.9084 151.303C52.7002 151.414 52.47 151.478 52.2343 151.49C51.9985 151.502 51.763 151.463 51.5443 151.374C51.3256 151.285 51.1292 151.149 50.9689 150.975C39.1628 138.231 32.4752 121.577 32.1875 104.207C31.5317 65.055 63.6588 32.2841 102.827 32.1875C141.995 32.0909 173.813 63.8962 173.813 103C173.826 120.789 167.118 137.927 155.031 150.979V150.979Z" fill="#8AC924"/>
<path d="M103 57.9375C95.0658 57.9375 87.892 60.9108 82.7943 66.3143C77.6966 71.7178 75.1498 79.1893 75.7251 87.208C76.8919 103 89.1272 115.875 103 115.875C116.873 115.875 129.084 103 130.275 87.212C130.87 79.2698 128.344 71.8666 123.161 66.3626C118.044 60.9309 110.882 57.9375 103 57.9375Z" fill="#8AC924"/>
</svg>
